<mxfile host="app.diagrams.net" modified="2024-02-23T22:44:52.061Z" agent="Mozilla/5.0 (Windows NT 10.0; Win64; x64) AppleWebKit/537.36 (KHTML, like Gecko) Chrome/122.0.0.0 Safari/537.36" etag="zyCnGOPIKbOkSgN2ZXWa" version="23.1.5" type="github">
  <diagram name="Page-1" id="mMkuZYZ8O5JWB962x6_R">
    <mxGraphModel dx="1434" dy="867" grid="1" gridSize="10" guides="1" tooltips="1" connect="1" arrows="1" fold="1" page="1" pageScale="1" pageWidth="850" pageHeight="1100" math="0" shadow="0">
      <root>
        <mxCell id="0" />
        <mxCell id="1" parent="0" />
        <mxCell id="tpuKUAX99yTqaL9eysSg-23" style="edgeStyle=orthogonalEdgeStyle;rounded=0;orthogonalLoop=1;jettySize=auto;html=1;exitX=1;exitY=0.5;exitDx=0;exitDy=0;exitPerimeter=0;entryX=0;entryY=0.25;entryDx=0;entryDy=0;" parent="1" source="tpuKUAX99yTqaL9eysSg-1" target="tpuKUAX99yTqaL9eysSg-21" edge="1">
          <mxGeometry relative="1" as="geometry" />
        </mxCell>
        <mxCell id="tpuKUAX99yTqaL9eysSg-1" value="Local File Storage" style="shape=cylinder3;whiteSpace=wrap;html=1;boundedLbl=1;backgroundOutline=1;size=15;" parent="1" vertex="1">
          <mxGeometry x="80" y="140" width="60" height="80" as="geometry" />
        </mxCell>
        <mxCell id="tpuKUAX99yTqaL9eysSg-24" style="edgeStyle=orthogonalEdgeStyle;rounded=0;orthogonalLoop=1;jettySize=auto;html=1;exitX=1;exitY=0.5;exitDx=0;exitDy=0;exitPerimeter=0;entryX=0;entryY=0.5;entryDx=0;entryDy=0;" parent="1" source="tpuKUAX99yTqaL9eysSg-2" target="tpuKUAX99yTqaL9eysSg-21" edge="1">
          <mxGeometry relative="1" as="geometry" />
        </mxCell>
        <mxCell id="tpuKUAX99yTqaL9eysSg-2" value="Google Cloud" style="shape=cylinder3;whiteSpace=wrap;html=1;boundedLbl=1;backgroundOutline=1;size=15;" parent="1" vertex="1">
          <mxGeometry x="80" y="270" width="60" height="80" as="geometry" />
        </mxCell>
        <mxCell id="tpuKUAX99yTqaL9eysSg-25" style="edgeStyle=orthogonalEdgeStyle;rounded=0;orthogonalLoop=1;jettySize=auto;html=1;entryX=0;entryY=0.5;entryDx=0;entryDy=0;" parent="1" source="tpuKUAX99yTqaL9eysSg-3" target="tpuKUAX99yTqaL9eysSg-21" edge="1">
          <mxGeometry relative="1" as="geometry">
            <mxPoint x="290" y="400" as="targetPoint" />
          </mxGeometry>
        </mxCell>
        <mxCell id="tpuKUAX99yTqaL9eysSg-3" value="AWS S3 Bucket" style="shape=cylinder3;whiteSpace=wrap;html=1;boundedLbl=1;backgroundOutline=1;size=15;" parent="1" vertex="1">
          <mxGeometry x="80" y="390" width="60" height="80" as="geometry" />
        </mxCell>
        <mxCell id="tpuKUAX99yTqaL9eysSg-26" style="edgeStyle=orthogonalEdgeStyle;rounded=0;orthogonalLoop=1;jettySize=auto;html=1;exitX=1;exitY=0.5;exitDx=0;exitDy=0;exitPerimeter=0;entryX=0;entryY=0.75;entryDx=0;entryDy=0;" parent="1" source="tpuKUAX99yTqaL9eysSg-4" target="tpuKUAX99yTqaL9eysSg-21" edge="1">
          <mxGeometry relative="1" as="geometry" />
        </mxCell>
        <mxCell id="tpuKUAX99yTqaL9eysSg-4" value="Azure Storage" style="shape=cylinder3;whiteSpace=wrap;html=1;boundedLbl=1;backgroundOutline=1;size=15;" parent="1" vertex="1">
          <mxGeometry x="80" y="510" width="60" height="80" as="geometry" />
        </mxCell>
        <mxCell id="tpuKUAX99yTqaL9eysSg-17" value="" style="swimlane;startSize=0;" parent="1" vertex="1">
          <mxGeometry x="270" y="111" width="530" height="480" as="geometry" />
        </mxCell>
        <mxCell id="tpuKUAX99yTqaL9eysSg-18" value="One time process for pre &lt;br&gt;processing and generating graph" style="text;html=1;align=center;verticalAlign=middle;resizable=0;points=[];autosize=1;strokeColor=none;fillColor=none;" parent="tpuKUAX99yTqaL9eysSg-17" vertex="1">
          <mxGeometry x="30" width="200" height="40" as="geometry" />
        </mxCell>
        <mxCell id="tpuKUAX99yTqaL9eysSg-10" value="Pre-Processor" style="rounded=0;whiteSpace=wrap;html=1;" parent="tpuKUAX99yTqaL9eysSg-17" vertex="1">
          <mxGeometry x="250" y="215" width="85" height="80" as="geometry" />
        </mxCell>
        <mxCell id="tpuKUAX99yTqaL9eysSg-13" value="Graph Generator" style="rounded=0;whiteSpace=wrap;html=1;" parent="tpuKUAX99yTqaL9eysSg-17" vertex="1">
          <mxGeometry x="380" y="215" width="120" height="80" as="geometry" />
        </mxCell>
        <mxCell id="tpuKUAX99yTqaL9eysSg-14" style="edgeStyle=orthogonalEdgeStyle;rounded=0;orthogonalLoop=1;jettySize=auto;html=1;exitX=1;exitY=0.5;exitDx=0;exitDy=0;entryX=0;entryY=0.5;entryDx=0;entryDy=0;" parent="tpuKUAX99yTqaL9eysSg-17" source="tpuKUAX99yTqaL9eysSg-10" target="tpuKUAX99yTqaL9eysSg-13" edge="1">
          <mxGeometry relative="1" as="geometry" />
        </mxCell>
        <mxCell id="tpuKUAX99yTqaL9eysSg-5" value="File Reader" style="rounded=0;whiteSpace=wrap;html=1;" parent="tpuKUAX99yTqaL9eysSg-17" vertex="1">
          <mxGeometry x="140" y="215" width="70" height="80" as="geometry" />
        </mxCell>
        <mxCell id="tpuKUAX99yTqaL9eysSg-11" style="edgeStyle=orthogonalEdgeStyle;rounded=0;orthogonalLoop=1;jettySize=auto;html=1;exitX=1;exitY=0.5;exitDx=0;exitDy=0;entryX=0;entryY=0.5;entryDx=0;entryDy=0;" parent="tpuKUAX99yTqaL9eysSg-17" source="tpuKUAX99yTqaL9eysSg-5" target="tpuKUAX99yTqaL9eysSg-10" edge="1">
          <mxGeometry relative="1" as="geometry" />
        </mxCell>
        <mxCell id="tpuKUAX99yTqaL9eysSg-21" value="File Monitori" style="rounded=0;whiteSpace=wrap;html=1;" parent="tpuKUAX99yTqaL9eysSg-17" vertex="1">
          <mxGeometry x="20" y="70" width="80" height="370" as="geometry" />
        </mxCell>
        <mxCell id="tpuKUAX99yTqaL9eysSg-20" style="edgeStyle=orthogonalEdgeStyle;rounded=0;orthogonalLoop=1;jettySize=auto;html=1;exitX=1;exitY=0.5;exitDx=0;exitDy=0;exitPerimeter=0;entryX=0;entryY=0.5;entryDx=0;entryDy=0;" parent="tpuKUAX99yTqaL9eysSg-17" source="tpuKUAX99yTqaL9eysSg-21" target="tpuKUAX99yTqaL9eysSg-5" edge="1">
          <mxGeometry relative="1" as="geometry" />
        </mxCell>
        <mxCell id="tpuKUAX99yTqaL9eysSg-27" value="Graph DB" style="shape=cylinder3;whiteSpace=wrap;html=1;boundedLbl=1;backgroundOutline=1;size=15;" parent="tpuKUAX99yTqaL9eysSg-17" vertex="1">
          <mxGeometry x="262.5" y="367" width="60" height="80" as="geometry" />
        </mxCell>
        <mxCell id="tpuKUAX99yTqaL9eysSg-30" value="" style="endArrow=classic;html=1;rounded=0;entryX=0.5;entryY=0;entryDx=0;entryDy=0;entryPerimeter=0;" parent="tpuKUAX99yTqaL9eysSg-17" source="tpuKUAX99yTqaL9eysSg-10" target="tpuKUAX99yTqaL9eysSg-27" edge="1">
          <mxGeometry relative="1" as="geometry">
            <mxPoint x="390" y="319" as="sourcePoint" />
            <mxPoint x="293" y="369" as="targetPoint" />
          </mxGeometry>
        </mxCell>
        <mxCell id="tpuKUAX99yTqaL9eysSg-31" value="Label" style="edgeLabel;resizable=0;html=1;;align=center;verticalAlign=middle;" parent="tpuKUAX99yTqaL9eysSg-30" connectable="0" vertex="1">
          <mxGeometry relative="1" as="geometry" />
        </mxCell>
        <mxCell id="tpuKUAX99yTqaL9eysSg-32" value="Prefix List" style="edgeLabel;html=1;align=center;verticalAlign=middle;resizable=0;points=[];" parent="tpuKUAX99yTqaL9eysSg-30" vertex="1" connectable="0">
          <mxGeometry x="-0.0527" y="1" relative="1" as="geometry">
            <mxPoint as="offset" />
          </mxGeometry>
        </mxCell>
        <mxCell id="tpuKUAX99yTqaL9eysSg-33" style="edgeStyle=orthogonalEdgeStyle;rounded=0;orthogonalLoop=1;jettySize=auto;html=1;exitX=0.5;exitY=1;exitDx=0;exitDy=0;entryX=1;entryY=0.5;entryDx=0;entryDy=0;entryPerimeter=0;" parent="tpuKUAX99yTqaL9eysSg-17" source="tpuKUAX99yTqaL9eysSg-13" target="tpuKUAX99yTqaL9eysSg-27" edge="1">
          <mxGeometry relative="1" as="geometry" />
        </mxCell>
        <mxCell id="tpuKUAX99yTqaL9eysSg-34" value="Graph details" style="edgeLabel;html=1;align=center;verticalAlign=middle;resizable=0;points=[];" parent="tpuKUAX99yTqaL9eysSg-33" vertex="1" connectable="0">
          <mxGeometry x="-0.279" y="-3" relative="1" as="geometry">
            <mxPoint as="offset" />
          </mxGeometry>
        </mxCell>
        <mxCell id="tpuKUAX99yTqaL9eysSg-38" style="edgeStyle=orthogonalEdgeStyle;rounded=0;orthogonalLoop=1;jettySize=auto;html=1;exitX=0.5;exitY=0.5;exitDx=0;exitDy=0;exitPerimeter=0;" parent="1" source="tpuKUAX99yTqaL9eysSg-35" target="tpuKUAX99yTqaL9eysSg-37" edge="1">
          <mxGeometry relative="1" as="geometry" />
        </mxCell>
        <mxCell id="tpuKUAX99yTqaL9eysSg-35" value="User" style="shape=umlActor;verticalLabelPosition=bottom;verticalAlign=top;html=1;outlineConnect=0;" parent="1" vertex="1">
          <mxGeometry x="95" y="800" width="30" height="60" as="geometry" />
        </mxCell>
        <mxCell id="tpuKUAX99yTqaL9eysSg-36" value="" style="swimlane;startSize=0;" parent="1" vertex="1">
          <mxGeometry x="270" y="660" width="530" height="400" as="geometry" />
        </mxCell>
        <mxCell id="tpuKUAX99yTqaL9eysSg-41" style="edgeStyle=orthogonalEdgeStyle;rounded=0;orthogonalLoop=1;jettySize=auto;html=1;entryX=0;entryY=0.5;entryDx=0;entryDy=0;" parent="tpuKUAX99yTqaL9eysSg-36" source="tpuKUAX99yTqaL9eysSg-37" target="tpuKUAX99yTqaL9eysSg-39" edge="1">
          <mxGeometry relative="1" as="geometry" />
        </mxCell>
        <mxCell id="tpuKUAX99yTqaL9eysSg-37" value="Graph Search" style="rounded=0;whiteSpace=wrap;html=1;" parent="tpuKUAX99yTqaL9eysSg-36" vertex="1">
          <mxGeometry x="20" y="30" width="80" height="350" as="geometry" />
        </mxCell>
        <mxCell id="tpuKUAX99yTqaL9eysSg-43" style="edgeStyle=orthogonalEdgeStyle;rounded=0;orthogonalLoop=1;jettySize=auto;html=1;exitX=1;exitY=0.5;exitDx=0;exitDy=0;entryX=0;entryY=0.5;entryDx=0;entryDy=0;" parent="tpuKUAX99yTqaL9eysSg-36" source="tpuKUAX99yTqaL9eysSg-39" target="tpuKUAX99yTqaL9eysSg-42" edge="1">
          <mxGeometry relative="1" as="geometry" />
        </mxCell>
        <mxCell id="tpuKUAX99yTqaL9eysSg-39" value="Pre-Processor" style="rounded=0;whiteSpace=wrap;html=1;" parent="tpuKUAX99yTqaL9eysSg-36" vertex="1">
          <mxGeometry x="165" y="60" width="85" height="80" as="geometry" />
        </mxCell>
        <mxCell id="tpuKUAX99yTqaL9eysSg-40" value="Graph DB" style="shape=cylinder3;whiteSpace=wrap;html=1;boundedLbl=1;backgroundOutline=1;size=15;" parent="tpuKUAX99yTqaL9eysSg-36" vertex="1">
          <mxGeometry x="177.5" y="280" width="60" height="80" as="geometry" />
        </mxCell>
        <mxCell id="tpuKUAX99yTqaL9eysSg-42" value="Search algorithm***" style="rounded=0;whiteSpace=wrap;html=1;" parent="tpuKUAX99yTqaL9eysSg-36" vertex="1">
          <mxGeometry x="330" y="60" width="120" height="80" as="geometry" />
        </mxCell>
        <mxCell id="tpuKUAX99yTqaL9eysSg-46" value="" style="endArrow=classic;startArrow=classic;html=1;rounded=0;exitX=0.5;exitY=0;exitDx=0;exitDy=0;exitPerimeter=0;entryX=0.5;entryY=1;entryDx=0;entryDy=0;" parent="tpuKUAX99yTqaL9eysSg-36" source="tpuKUAX99yTqaL9eysSg-40" target="tpuKUAX99yTqaL9eysSg-42" edge="1">
          <mxGeometry width="50" height="50" relative="1" as="geometry">
            <mxPoint x="420" y="-10" as="sourcePoint" />
            <mxPoint x="470" y="-60" as="targetPoint" />
            <Array as="points">
              <mxPoint x="208" y="200" />
              <mxPoint x="390" y="200" />
            </Array>
          </mxGeometry>
        </mxCell>
        <mxCell id="jZBEGul1bDZnwyBNVnjY-4" style="edgeStyle=orthogonalEdgeStyle;rounded=0;orthogonalLoop=1;jettySize=auto;html=1;exitX=0.875;exitY=0.5;exitDx=0;exitDy=0;exitPerimeter=0;entryX=0;entryY=0.5;entryDx=0;entryDy=0;" edge="1" parent="1" source="jZBEGul1bDZnwyBNVnjY-2" target="jZBEGul1bDZnwyBNVnjY-3">
          <mxGeometry relative="1" as="geometry" />
        </mxCell>
        <mxCell id="jZBEGul1bDZnwyBNVnjY-2" value="Third party&lt;br&gt;Black Box" style="ellipse;shape=cloud;whiteSpace=wrap;html=1;" vertex="1" parent="1">
          <mxGeometry x="50" y="1390" width="120" height="80" as="geometry" />
        </mxCell>
        <mxCell id="jZBEGul1bDZnwyBNVnjY-6" style="edgeStyle=orthogonalEdgeStyle;rounded=0;orthogonalLoop=1;jettySize=auto;html=1;exitX=1;exitY=0.5;exitDx=0;exitDy=0;entryX=0;entryY=0.5;entryDx=0;entryDy=0;" edge="1" parent="1" source="jZBEGul1bDZnwyBNVnjY-3" target="jZBEGul1bDZnwyBNVnjY-5">
          <mxGeometry relative="1" as="geometry" />
        </mxCell>
        <mxCell id="jZBEGul1bDZnwyBNVnjY-3" value="Event Queue" style="shape=process;whiteSpace=wrap;html=1;backgroundOutline=1;" vertex="1" parent="1">
          <mxGeometry x="328" y="1410" width="142" height="40" as="geometry" />
        </mxCell>
        <mxCell id="jZBEGul1bDZnwyBNVnjY-12" style="edgeStyle=orthogonalEdgeStyle;rounded=0;orthogonalLoop=1;jettySize=auto;html=1;exitX=0.75;exitY=1;exitDx=0;exitDy=0;entryX=0;entryY=0.5;entryDx=0;entryDy=0;" edge="1" parent="1" source="jZBEGul1bDZnwyBNVnjY-5" target="jZBEGul1bDZnwyBNVnjY-11">
          <mxGeometry relative="1" as="geometry" />
        </mxCell>
        <mxCell id="jZBEGul1bDZnwyBNVnjY-13" style="edgeStyle=orthogonalEdgeStyle;rounded=0;orthogonalLoop=1;jettySize=auto;html=1;exitX=0.5;exitY=1;exitDx=0;exitDy=0;entryX=0;entryY=0.5;entryDx=0;entryDy=0;" edge="1" parent="1" source="jZBEGul1bDZnwyBNVnjY-5" target="jZBEGul1bDZnwyBNVnjY-10">
          <mxGeometry relative="1" as="geometry">
            <Array as="points">
              <mxPoint x="680" y="1490" />
              <mxPoint x="625" y="1490" />
            </Array>
          </mxGeometry>
        </mxCell>
        <mxCell id="jZBEGul1bDZnwyBNVnjY-14" style="edgeStyle=orthogonalEdgeStyle;rounded=0;orthogonalLoop=1;jettySize=auto;html=1;exitX=0.25;exitY=1;exitDx=0;exitDy=0;entryX=0;entryY=0.5;entryDx=0;entryDy=0;" edge="1" parent="1" source="jZBEGul1bDZnwyBNVnjY-5" target="jZBEGul1bDZnwyBNVnjY-9">
          <mxGeometry relative="1" as="geometry">
            <Array as="points">
              <mxPoint x="650" y="1480" />
              <mxPoint x="554" y="1480" />
            </Array>
          </mxGeometry>
        </mxCell>
        <mxCell id="jZBEGul1bDZnwyBNVnjY-15" style="edgeStyle=orthogonalEdgeStyle;rounded=0;orthogonalLoop=1;jettySize=auto;html=1;exitX=0;exitY=1;exitDx=0;exitDy=0;entryX=0;entryY=0.5;entryDx=0;entryDy=0;" edge="1" parent="1" source="jZBEGul1bDZnwyBNVnjY-5" target="jZBEGul1bDZnwyBNVnjY-8">
          <mxGeometry relative="1" as="geometry">
            <Array as="points">
              <mxPoint x="620" y="1470" />
              <mxPoint x="481" y="1470" />
            </Array>
          </mxGeometry>
        </mxCell>
        <mxCell id="jZBEGul1bDZnwyBNVnjY-5" value="Java Event Decoder" style="rounded=1;whiteSpace=wrap;html=1;" vertex="1" parent="1">
          <mxGeometry x="620" y="1400" width="120" height="60" as="geometry" />
        </mxCell>
        <mxCell id="jZBEGul1bDZnwyBNVnjY-18" style="edgeStyle=orthogonalEdgeStyle;rounded=0;orthogonalLoop=1;jettySize=auto;html=1;exitX=1;exitY=0.5;exitDx=0;exitDy=0;entryX=0.25;entryY=0;entryDx=0;entryDy=0;" edge="1" parent="1" source="jZBEGul1bDZnwyBNVnjY-8" target="jZBEGul1bDZnwyBNVnjY-17">
          <mxGeometry relative="1" as="geometry" />
        </mxCell>
        <mxCell id="jZBEGul1bDZnwyBNVnjY-8" value="Transaction Created Queue" style="shape=process;whiteSpace=wrap;html=1;backgroundOutline=1;rotation=90;" vertex="1" parent="1">
          <mxGeometry x="410" y="1600" width="142" height="40" as="geometry" />
        </mxCell>
        <mxCell id="jZBEGul1bDZnwyBNVnjY-19" style="edgeStyle=orthogonalEdgeStyle;rounded=0;orthogonalLoop=1;jettySize=auto;html=1;exitX=1;exitY=0.5;exitDx=0;exitDy=0;" edge="1" parent="1" source="jZBEGul1bDZnwyBNVnjY-9" target="jZBEGul1bDZnwyBNVnjY-17">
          <mxGeometry relative="1" as="geometry" />
        </mxCell>
        <mxCell id="jZBEGul1bDZnwyBNVnjY-9" value="Transaction Processed Queue" style="shape=process;whiteSpace=wrap;html=1;backgroundOutline=1;rotation=90;" vertex="1" parent="1">
          <mxGeometry x="483" y="1600" width="142" height="40" as="geometry" />
        </mxCell>
        <mxCell id="jZBEGul1bDZnwyBNVnjY-21" style="edgeStyle=orthogonalEdgeStyle;rounded=0;orthogonalLoop=1;jettySize=auto;html=1;exitX=1;exitY=0.5;exitDx=0;exitDy=0;entryX=0.5;entryY=0;entryDx=0;entryDy=0;" edge="1" parent="1" source="jZBEGul1bDZnwyBNVnjY-10" target="jZBEGul1bDZnwyBNVnjY-17">
          <mxGeometry relative="1" as="geometry" />
        </mxCell>
        <mxCell id="jZBEGul1bDZnwyBNVnjY-10" value="Customer Details Updated" style="shape=process;whiteSpace=wrap;html=1;backgroundOutline=1;rotation=90;" vertex="1" parent="1">
          <mxGeometry x="554" y="1600" width="142" height="40" as="geometry" />
        </mxCell>
        <mxCell id="jZBEGul1bDZnwyBNVnjY-22" style="edgeStyle=orthogonalEdgeStyle;rounded=0;orthogonalLoop=1;jettySize=auto;html=1;exitX=1;exitY=0.5;exitDx=0;exitDy=0;entryX=0.75;entryY=0;entryDx=0;entryDy=0;" edge="1" parent="1" source="jZBEGul1bDZnwyBNVnjY-11" target="jZBEGul1bDZnwyBNVnjY-17">
          <mxGeometry relative="1" as="geometry" />
        </mxCell>
        <mxCell id="jZBEGul1bDZnwyBNVnjY-11" value="&amp;nbsp;Queue" style="shape=process;whiteSpace=wrap;html=1;backgroundOutline=1;rotation=90;" vertex="1" parent="1">
          <mxGeometry x="625" y="1600" width="142" height="40" as="geometry" />
        </mxCell>
        <mxCell id="jZBEGul1bDZnwyBNVnjY-16" value="" style="shape=cylinder3;whiteSpace=wrap;html=1;boundedLbl=1;backgroundOutline=1;size=15;" vertex="1" parent="1">
          <mxGeometry x="560" y="1860" width="60" height="80" as="geometry" />
        </mxCell>
        <mxCell id="jZBEGul1bDZnwyBNVnjY-23" style="edgeStyle=orthogonalEdgeStyle;rounded=0;orthogonalLoop=1;jettySize=auto;html=1;exitX=0.5;exitY=1;exitDx=0;exitDy=0;" edge="1" parent="1" source="jZBEGul1bDZnwyBNVnjY-17" target="jZBEGul1bDZnwyBNVnjY-16">
          <mxGeometry relative="1" as="geometry" />
        </mxCell>
        <mxCell id="jZBEGul1bDZnwyBNVnjY-17" value="DB Interaction Layer" style="rounded=1;whiteSpace=wrap;html=1;" vertex="1" parent="1">
          <mxGeometry x="425" y="1770" width="330" height="40" as="geometry" />
        </mxCell>
        <mxCell id="jZBEGul1bDZnwyBNVnjY-24" value="This will collect the metrics for each events." style="text;html=1;align=center;verticalAlign=middle;whiteSpace=wrap;rounded=0;" vertex="1" parent="1">
          <mxGeometry x="610" y="1370" width="130" height="30" as="geometry" />
        </mxCell>
        <mxCell id="jZBEGul1bDZnwyBNVnjY-27" value="" style="swimlane;startSize=0;" vertex="1" parent="1">
          <mxGeometry x="40" y="1360" width="720" height="600" as="geometry" />
        </mxCell>
      </root>
    </mxGraphModel>
  </diagram>
</mxfile>
